<svg xmlns="http://www.w3.org/2000/svg" viewBox="0 0 400 240">
  <defs>
    <linearGradient id="bg" x1="0" y1="0" x2="0" y2="1">
      <stop offset="0" stop-color="#eef8f2"/>
      <stop offset="1" stop-color="#d6eee0"/>
    </linearGradient>
  </defs>
  <rect width="400" height="240" fill="url(#bg)"/>
  <rect y="198" width="400" height="42" fill="#bfe0cf"/>
  <!-- 창문 -->
  <rect x="30" y="30" width="86" height="66" rx="9" fill="#fdfaf2" stroke="#9fc7b4" stroke-width="3"/>
  <line x1="73" y1="30" x2="73" y2="96" stroke="#9fc7b4" stroke-width="3"/>
  <line x1="30" y1="63" x2="116" y2="63" stroke="#9fc7b4" stroke-width="3"/>
  <!-- 거미줄 (오른쪽 위) -->
  <g stroke="#79a892" stroke-width="2.2" fill="none" opacity="0.9">
    <circle cx="332" cy="62" r="26"/>
    <circle cx="332" cy="62" r="46"/>
    <circle cx="332" cy="62" r="66"/>
    <line x1="332" y1="-8" x2="332" y2="132"/>
    <line x1="262" y1="62" x2="400" y2="62"/>
    <line x1="283" y1="13" x2="381" y2="111"/>
    <line x1="381" y1="13" x2="283" y2="111"/>
  </g>
  <!-- 갇힌 막대선생 -->
  <text x="332" y="80" font-size="38" text-anchor="middle">🧑‍🏫</text>
  <!-- 줄에 매달린 거미 -->
  <line x1="180" y1="0" x2="180" y2="74" stroke="#79a892" stroke-width="2"/>
  <text x="180" y="106" font-size="36" text-anchor="middle">🕷️</text>
  <!-- 잡은 기록 막대그래프 -->
  <g>
    <rect x="46" y="138" width="34" height="60" rx="6" fill="#2f9472"/>
    <rect x="90" y="118" width="34" height="80" rx="6" fill="#257a5c"/>
    <rect x="134" y="156" width="34" height="42" rx="6" fill="#3aa886"/>
    <rect x="40" y="196" width="140" height="5" rx="2.5" fill="#1f6b50"/>
  </g>
  <text x="244" y="196" font-size="30" text-anchor="middle">🔦</text>
</svg>
