<svg xmlns="http://www.w3.org/2000/svg" viewBox="0 0 400 240">
  <defs>
    <linearGradient id="bg" x1="0" y1="0" x2="0" y2="1">
      <stop offset="0" stop-color="#141d44"/>
      <stop offset="1" stop-color="#2c4180"/>
    </linearGradient>
  </defs>
  <rect width="400" height="240" fill="url(#bg)"/>
  <!-- 별 -->
  <g fill="#ffffff">
    <circle cx="46" cy="38" r="2.4" opacity="0.9"/>
    <circle cx="120" cy="22" r="1.7" opacity="0.6"/>
    <circle cx="210" cy="48" r="2" opacity="0.8"/>
    <circle cx="300" cy="26" r="1.6" opacity="0.6"/>
    <circle cx="368" cy="70" r="2.2" opacity="0.85"/>
    <circle cx="80" cy="120" r="1.5" opacity="0.5"/>
    <circle cx="340" cy="140" r="1.6" opacity="0.5"/>
  </g>
  <text x="352" y="48" font-size="30" text-anchor="middle">🌕</text>
  <!-- 로켓과 불꽃 -->
  <g transform="rotate(-14 170 96)">
    <text x="170" y="112" font-size="56" text-anchor="middle">🚀</text>
  </g>
  <text x="128" y="156" font-size="24" text-anchor="middle" opacity="0.85">✨</text>
  <!-- 연료 탱크 그래프 -->
  <g>
    <rect x="222" y="160" width="156" height="68" rx="12" fill="#0e1531" stroke="#3d4f8c" stroke-width="2"/>
    <rect x="236" y="186" width="24" height="34" rx="5" fill="#e2a72c"/>
    <rect x="268" y="174" width="24" height="46" rx="5" fill="#d95f4f"/>
    <rect x="300" y="196" width="24" height="24" rx="5" fill="#2f9472"/>
    <rect x="332" y="180" width="24" height="40" rx="5" fill="#8a70cb"/>
  </g>
  <!-- 단서 카드 -->
  <text x="48" y="212" font-size="30" text-anchor="middle">🛰️</text>
</svg>
